<svg width="48" height="48" viewBox="0 0 48 48" fill="none" xmlns="http://www.w3.org/2000/svg">
<path d="M23.9999 4.5C20.0694 4.5 16.2999 6.06139 13.5206 8.84068C10.7413 11.62 9.17993 15.3895 9.17993 19.32V20.4C9.77993 28.52 16.5199 35.05 23.9999 43.5C31.8099 34.68 38.8199 28 38.8199 19.32C38.8199 15.3895 37.2585 11.62 34.4793 8.84068C31.7 6.06139 27.9304 4.5 23.9999 4.5ZM23.9999 12.2C25.4105 12.2 26.7894 12.6184 27.9622 13.4023C29.1349 14.1862 30.0488 15.3004 30.5881 16.6038C31.1275 17.9072 31.2681 19.3413 30.9922 20.7247C30.7163 22.108 30.0362 23.3785 29.0381 24.3752C28.0399 25.372 26.7685 26.0502 25.3848 26.3242C24.001 26.5982 22.5671 26.4556 21.2645 25.9144C19.9618 25.3732 18.8489 24.4578 18.0667 23.2839C17.2844 22.1101 16.868 20.7306 16.8699 19.32C16.8726 17.4307 17.6249 15.6198 18.9618 14.2848C20.2986 12.9498 22.1107 12.2 23.9999 12.2Z" stroke="white" stroke-linecap="round" stroke-linejoin="round"/>
</svg>
